<?xml version="1.0" standalone="no"?>
<!DOCTYPE svg PUBLIC "-//W3C//DTD SVG 20010904//EN"
 "http://www.w3.org/TR/2001/REC-SVG-20010904/DTD/svg10.dtd">
<svg version="1.0" xmlns="http://www.w3.org/2000/svg"
 width="1024.000000pt" height="1024.000000pt" viewBox="0 0 1024.000000 1024.000000"
 preserveAspectRatio="xMidYMid meet">
<metadata>
Created by potrace 1.16, written by Peter Selinger 2001-2019
</metadata>
<g transform="translate(0.000000,1024.000000) scale(0.100000,-0.100000)"
fill="#000000" stroke="none">
<path d="M4815 7864 c-148 -86 -298 -171 -332 -190 -43 -25 -64 -43 -71 -64
-7 -18 -8 -170 -5 -420 l6 -391 31 -23 c17 -13 171 -102 342 -199 302 -172
352 -194 380 -168 5 5 149 88 319 186 171 97 319 185 330 195 18 19 19 36 20
424 0 347 -2 407 -15 420 -8 8 -162 98 -341 200 -250 142 -335 186 -360 186
-25 -1 -106 -42 -304 -156z m505 -298 l195 -113 8 -227 c5 -125 6 -233 4 -241
-3 -7 -41 -33 -84 -58 -269 -154 -312 -177 -322 -177 -6 0 -46 20 -89 44 -42
24 -131 75 -197 113 l-120 69 -3 230 c-2 198 0 233 13 244 16 13 386 228 395
229 3 0 93 -51 200 -113z"/>
<path d="M3465 7069 c-22 -12 -114 -65 -205 -117 -91 -53 -184 -106 -208 -120
-23 -13 -47 -32 -52 -42 -16 -29 -13 -602 3 -622 6 -9 93 -64 192 -121 99 -57
207 -120 240 -140 33 -21 73 -37 89 -37 35 0 511 272 526 300 6 10 10 79 10
153 l0 135 135 79 135 79 -42 24 c-81 44 -78 37 -78 197 l0 144 -62 -36 c-35
-20 -90 -50 -123 -66 l-60 -30 -210 120 c-115 67 -219 121 -230 121 -11 0 -38
-10 -60 -21z m185 -378 l115 -67 3 -141 3 -140 -123 -71 -123 -71 -55 31 c-30
17 -85 48 -123 70 l-68 39 3 142 3 141 115 68 c63 37 120 67 125 67 6 0 62
-31 125 -68z"/>
<path d="M6555 7008 c-66 -38 -157 -92 -202 -118 l-82 -48 -112 64 c-61 35
-115 64 -120 64 -5 0 -9 -64 -9 -143 l0 -143 -52 -29 c-28 -17 -51 -34 -52
-39 -1 -5 56 -43 127 -85 l127 -76 0 -141 c0 -122 2 -143 18 -156 9 -9 122
-77 249 -152 168 -98 242 -136 265 -136 23 0 99 39 267 136 130 76 242 144
249 152 9 12 12 92 12 323 l0 308 -27 19 c-16 10 -113 68 -218 127 -104 59
-202 116 -217 126 -49 35 -92 25 -223 -53z m317 -341 l78 -42 0 -145 0 -145
-120 -69 -120 -68 -93 52 c-50 30 -104 62 -119 72 l-28 19 0 140 c0 122 2 140
18 149 9 6 64 37 122 70 l105 59 40 -24 c22 -14 75 -44 117 -68z"/>
<path d="M1967 5632 c-15 -16 -17 -45 -17 -204 0 -162 2 -187 18 -202 16 -16
84 -58 417 -263 72 -44 200 -123 285 -175 85 -53 225 -138 310 -190 85 -52
292 -179 460 -283 168 -104 350 -216 405 -250 160 -99 180 -111 194 -129 11
-14 12 -39 2 -153 -7 -75 -17 -144 -24 -152 -7 -8 -32 -23 -57 -34 -25 -11
-94 -42 -155 -70 -105 -47 -239 -107 -605 -267 -91 -40 -171 -77 -177 -82 -10
-8 -13 -77 -13 -284 0 -150 3 -275 8 -278 7 -4 91 -24 502 -121 232 -54 436
-95 481 -97 24 0 67 17 149 62 63 35 183 100 265 145 83 45 227 124 320 175
396 218 377 209 404 196 14 -6 97 -50 185 -98 87 -49 162 -88 166 -88 4 0 63
-31 131 -68 180 -100 443 -243 526 -288 l73 -38 72 12 c159 27 899 199 924
214 15 10 29 493 16 529 -10 26 -95 67 -572 274 -253 110 -440 197 -446 207
-8 12 -30 258 -26 286 2 13 19 34 40 48 33 23 354 223 472 294 25 15 142 87
260 160 118 73 409 252 645 398 614 378 653 402 667 420 14 17 19 352 6 385
-7 16 -69 17 -1098 17 l-1090 0 0 -130 0 -130 859 0 c473 0 862 -4 865 -8 3
-5 -75 -18 -172 -31 -181 -23 -950 -128 -1329 -181 -117 -17 -215 -30 -218
-30 -3 0 -5 -118 -5 -262 l0 -263 -312 -160 c-172 -88 -419 -215 -550 -281
-214 -110 -235 -123 -220 -136 9 -8 292 -199 627 -423 336 -225 625 -419 643
-433 30 -23 53 -27 315 -53 155 -16 301 -29 324 -29 23 0 44 -4 47 -8 5 -8
-122 -38 -478 -113 -105 -22 -191 -41 -192 -42 -1 -1 -16 -105 -33 -232 -37
-271 -36 -265 -44 -245 -3 8 -20 135 -38 282 l-33 267 -146 108 c-261 194
-472 343 -485 343 -8 0 -15 -3 -18 -7 -2 -5 -3 -3 -2 2 1 6 -66 54 -149 108
-229 149 -708 463 -733 482 -13 9 -23 21 -23 28 0 7 183 104 406 217 224 113
510 258 636 323 l228 118 -2 212 -3 212 -911 3 -910 2 -18 49 c-16 45 -21 50
-54 55 -63 10 -882 86 -1127 105 -66 5 520 9 1458 10 l1567 1 0 140 0 140
-1938 0 c-1866 0 -1940 -1 -1955 -18z m3530 -2234 c-3 -8 -6 -5 -6 6 -1 11 2
17 5 13 3 -3 4 -12 1 -19z"/>
</g>
</svg>
