<?xml version="1.0" standalone="no"?>
<!DOCTYPE svg PUBLIC "-//W3C//DTD SVG 20010904//EN"
 "http://www.w3.org/TR/2001/REC-SVG-20010904/DTD/svg10.dtd">
<svg version="1.0" xmlns="http://www.w3.org/2000/svg"
 width="1536.000000pt" height="1024.000000pt" viewBox="0 0 1536.000000 1024.000000"
 preserveAspectRatio="xMidYMid meet">
<metadata>
Created by potrace 1.16, written by Peter Selinger 2001-2019
</metadata>
<g transform="translate(0.000000,1024.000000) scale(0.100000,-0.100000)"
fill="#000000" stroke="none">
<path d="M3180 6795 c-52 -30 -103 -59 -113 -65 -17 -10 -19 -24 -16 -148 2
-75 0 -143 -5 -151 -6 -10 -5 -12 2 -7 12 7 73 -21 168 -78 32 -20 65 -36 73
-36 7 0 58 27 113 60 54 33 103 60 108 60 6 0 10 61 10 148 l0 147 -114 63
c-63 34 -118 62 -122 62 -5 -1 -52 -25 -104 -55z m231 -59 l66 -35 6 -118 c4
-69 3 -119 -3 -121 -5 -2 -44 -25 -87 -51 -43 -26 -86 -50 -96 -54 -11 -4 -49
11 -111 46 l-94 52 -4 120 -4 120 38 34 c21 19 66 47 100 62 l63 28 30 -25
c16 -13 60 -40 96 -58z"/>
<path d="M3148 6668 c-18 -15 -31 -85 -17 -93 5 -4 9 4 9 17 0 13 9 38 20 56
20 33 16 41 -12 20z"/>
<path d="M3210 6575 c0 -26 10 -39 37 -54 27 -14 44 -14 20 0 -10 6 -27 25
-38 42 -15 26 -19 28 -19 12z"/>
<path d="M3348 6429 c-21 -11 -38 -22 -38 -24 0 -3 18 4 40 15 22 11 40 23 40
25 0 7 0 7 -42 -16z"/>
<path d="M2574 6487 c-27 -18 -78 -50 -112 -72 l-62 -39 0 -51 c0 -29 3 -93 6
-143 l7 -91 124 -56 c68 -31 127 -55 131 -53 4 2 56 32 115 68 l108 65 -3 106
-3 106 51 31 c44 27 52 37 61 76 l10 45 -71 -37 -71 -37 -100 51 c-55 29 -109
54 -120 57 -13 4 -38 -5 -71 -26z m160 -88 c47 -18 54 -24 44 -36 -22 -27 -87
-53 -131 -53 -54 0 -67 -13 -67 -68 0 -40 3 -44 35 -58 31 -13 39 -13 66 1 16
9 33 23 36 31 7 19 74 65 85 58 4 -3 8 -29 8 -57 l-1 -52 -75 -45 -75 -46 -67
33 c-37 18 -72 32 -78 33 -6 0 -14 24 -18 53 -12 103 -12 102 57 140 34 20 72
47 84 61 28 31 27 31 97 5z"/>
<path d="M3832 6456 l-102 -54 -43 23 c-23 13 -59 31 -79 39 -34 15 -36 14
-31 -3 3 -11 0 -28 -6 -39 -9 -18 -3 -23 61 -57 l71 -38 -7 -111 -6 -111 119
-68 120 -68 33 17 c18 9 72 39 120 66 l86 50 7 81 c4 45 5 109 3 141 l-3 59
-110 63 c-60 35 -114 63 -120 63 -5 0 -56 -24 -113 -53z m158 -36 c21 -11 42
-25 46 -31 5 -8 2 -10 -7 -5 -15 8 9 -13 49 -42 22 -17 23 -21 15 -106 l-8
-88 -76 -42 -75 -43 -75 42 -74 43 -3 71 -3 71 41 -21 c29 -15 40 -27 40 -44
0 -45 65 -69 113 -44 30 16 37 28 37 66 0 26 -6 36 -30 48 -16 8 -42 15 -59
15 -16 0 -46 10 -66 22 l-37 21 31 13 c17 7 30 18 29 23 -3 10 48 49 65 50 4
1 25 -8 47 -19z"/>
<path d="M2320 5860 l-21 -30 -302 -2 -302 -3 -3 -84 c-2 -67 0 -87 14 -102
48 -54 447 -305 623 -394 85 -42 292 -125 314 -125 8 0 27 -10 42 -22 26 -20
27 -25 23 -89 -2 -46 -9 -74 -21 -87 -22 -24 -151 -88 -287 -142 -58 -23 -111
-46 -117 -52 -9 -7 -13 -44 -13 -119 0 -93 2 -110 18 -117 31 -17 295 -81 383
-93 81 -12 93 -11 170 10 94 26 250 86 339 131 33 17 66 30 74 30 9 0 71 -25
139 -55 139 -61 280 -110 350 -120 l47 -7 0 113 c0 188 7 174 -134 257 -152
89 -415 262 -399 262 6 0 62 -27 123 -60 86 -46 115 -58 129 -50 10 5 63 10
118 11 97 1 101 0 178 -38 44 -22 136 -64 205 -93 151 -64 190 -88 190 -116 0
-18 -15 -25 -112 -51 -62 -17 -137 -37 -166 -44 -52 -13 -101 -52 -103 -82 0
-7 -4 -34 -8 -60 l-8 -49 46 7 c56 8 359 84 384 97 15 7 17 24 17 122 0 79 -4
117 -12 124 -7 5 -65 30 -128 55 -276 107 -326 141 -324 217 3 88 64 147 179
170 179 36 495 213 793 443 96 74 103 81 100 111 l-3 31 -75 7 c-129 11 -573
28 -749 28 l-169 0 -19 38 -20 37 -114 6 c-63 4 -396 7 -741 8 l-627 1 -21
-30z m1474 -57 c3 -21 6 -84 6 -140 l0 -102 -32 -5 c-34 -5 -270 -27 -558 -52
-91 -7 -190 -13 -220 -13 l-55 1 60 13 c33 7 139 20 235 29 236 23 534 57 539
62 6 6 -16 154 -24 162 -4 4 -226 8 -495 10 -515 3 -500 2 -514 50 l-7 22 529
0 529 0 7 -37z m-1414 -20 c21 -81 22 -90 12 -73 -16 24 -42 120 -33 120 5 0
14 -21 21 -47z m2093 -39 c208 -4 353 -11 344 -16 -9 -4 -76 -13 -149 -19
-122 -9 -601 -60 -709 -75 l-47 -6 -16 55 c-25 85 -31 81 102 74 64 -4 278
-10 475 -13z m-2616 -30 c-3 -3 -12 -4 -19 -1 -8 3 -5 6 6 6 11 1 17 -2 13 -5z
m88 -14 c27 -7 27 -8 5 -8 -14 0 -38 4 -55 8 -27 7 -27 8 -5 8 14 0 39 -4 55
-8z m105 -20 c20 -6 21 -8 5 -8 -11 0 -33 4 -50 8 -27 7 -27 8 -5 8 14 0 36
-4 50 -8z m95 -20 c27 -7 27 -8 5 -8 -14 0 -36 4 -50 8 -20 6 -21 8 -5 8 11 0
34 -4 50 -8z m284 -40 c0 -10 -3 -8 -9 5 -12 27 -12 43 0 25 5 -8 9 -22 9 -30z
m-222 24 c-3 -3 -12 -4 -19 -1 -8 3 -5 6 6 6 11 1 17 -2 13 -5z m373 -170
c301 -224 326 -252 318 -370 -3 -45 -9 -69 -22 -82 -18 -16 -18 -16 -12 8 19
75 18 127 -2 172 -21 48 -76 96 -304 267 -92 68 -128 103 -128 125 0 5 10 -2
23 -16 12 -14 69 -61 127 -104z m1037 -326 c-3 -8 -6 -5 -6 6 -1 11 2 17 5 13
3 -3 4 -12 1 -19z m-412 -146 c-17 -15 -114 -75 -298 -186 l-179 -108 -146 7
c-161 8 -206 17 -156 29 16 4 58 20 94 36 62 27 70 28 188 24 l123 -5 157 89
c208 118 243 137 217 114z"/>
<path d="M5207 5769 c-89 -21 -161 -81 -197 -163 -10 -23 -41 -125 -70 -226
-77 -269 -73 -331 23 -382 39 -21 56 -23 262 -26 121 -2 242 0 270 5 47 8 50
10 62 52 7 24 15 52 18 62 6 17 0 19 -73 19 -141 0 -380 13 -394 21 -8 5 -12
25 -12 51 2 45 86 353 110 400 25 49 43 53 288 58 l230 5 18 60 c10 33 18 63
18 68 0 10 -507 7 -553 -4z"/>
<path d="M5840 5774 c0 -3 -29 -106 -64 -227 -77 -265 -156 -550 -156 -560 0
-4 42 -6 92 -5 l93 3 47 170 c26 94 52 186 58 206 10 35 11 36 71 43 94 9 133
7 154 -8 22 -16 23 -12 -50 -268 l-42 -148 93 0 93 0 12 43 c6 23 24 87 39
142 78 271 81 302 33 347 -22 21 -35 23 -137 26 -93 3 -122 0 -169 -17 -53
-18 -58 -18 -53 -3 14 46 66 248 66 255 0 4 -40 7 -90 7 -49 0 -90 -3 -90 -6z"/>
<path d="M7208 5720 c-10 -32 -18 -64 -18 -70 0 -6 34 -10 90 -10 50 0 90 1
90 3 0 1 9 32 19 70 l20 67 -92 0 -92 0 -17 -60z"/>
<path d="M8391 5769 c-62 -12 -126 -46 -156 -81 -45 -53 -65 -104 -126 -322
-65 -227 -69 -273 -32 -325 11 -14 37 -35 59 -46 35 -18 62 -20 249 -23 116
-1 237 1 269 5 l59 8 17 62 17 62 -227 3 c-248 3 -260 6 -260 60 0 32 33 162
82 320 23 75 36 103 59 123 31 25 31 25 237 25 114 0 217 3 229 6 21 6 25 14
58 122 4 9 -49 12 -243 11 -136 -1 -267 -5 -291 -10z"/>
<path d="M10329 5733 c-1 -4 -1 -11 0 -15 0 -4 -7 -4 -16 -1 -13 5 -15 2 -10
-11 4 -10 3 -15 -3 -11 -14 8 -39 -36 -59 -102 l-17 -58 -51 -3 -52 -3 -19
-59 -19 -60 48 0 c26 0 50 -3 52 -7 3 -5 -22 -98 -54 -208 -32 -110 -59 -203
-59 -207 0 -5 42 -8 93 -8 l92 0 27 98 c14 53 41 150 58 215 l32 117 97 0 97
0 16 60 16 60 -94 0 c-104 0 -106 2 -80 65 20 47 41 55 153 57 l98 2 -93 3
c-92 4 -94 4 -123 38 -25 28 -37 34 -69 33 -21 0 -43 3 -49 6 -6 4 -12 4 -12
-1z"/>
<path d="M10752 5582 l-14 -52 -47 0 c-47 0 -47 0 -58 -42 -7 -24 -15 -51 -18
-60 -6 -16 -1 -18 39 -18 25 0 46 -3 46 -7 0 -3 -18 -68 -40 -144 -38 -132
-49 -210 -32 -236 20 -32 80 -43 235 -43 l155 0 11 44 c6 24 13 50 16 59 5 12
-11 15 -104 19 -67 2 -115 8 -122 15 -9 9 -6 35 15 115 15 57 32 120 37 141
l10 37 123 0 c136 0 136 0 136 66 0 19 -5 34 -11 34 -5 0 -7 5 -4 10 4 6 -32
10 -99 10 -100 0 -106 1 -106 21 0 14 -6 19 -17 17 -10 -1 -24 1 -32 6 -19 12
-71 15 -71 4 0 -16 -28 17 -31 37 -3 11 -10 -3 -17 -33z"/>
<path d="M6481 5498 c-10 -24 -21 -53 -25 -65 l-7 -23 196 0 c212 0 216 -1
196 -53 l-11 -27 -162 0 c-216 -1 -254 -15 -297 -104 -11 -24 -25 -70 -32
-103 -16 -76 -2 -116 43 -132 19 -7 131 -11 283 -11 l253 0 22 83 c12 45 37
134 56 198 58 193 42 251 -73 270 -26 4 -133 8 -236 8 l-188 1 -18 -42z m311
-283 c3 -3 -2 -30 -11 -60 l-16 -55 -117 0 c-65 0 -119 4 -123 10 -10 16 14
89 33 99 17 11 224 15 234 6z"/>
<path d="M7156 5532 c-5 -9 -156 -535 -156 -546 0 -4 41 -5 92 -4 l92 3 43
155 c24 85 59 208 77 272 18 65 31 120 28 123 -8 8 -170 6 -176 -3z"/>
<path d="M7420 5515 c-16 -43 -150 -516 -150 -530 0 -3 42 -5 93 -5 l92 0 54
198 c29 108 55 202 56 209 4 14 159 28 203 18 17 -3 32 -12 35 -18 4 -12 -95
-376 -108 -397 -5 -7 23 -10 91 -8 l98 3 58 215 c32 118 58 229 58 247 0 19
-9 43 -24 60 l-24 28 -139 0 c-111 -1 -144 -4 -170 -18 -40 -22 -43 -21 -43 3
0 18 -7 20 -85 20 -82 0 -86 -1 -95 -25z"/>
<path d="M9539 5533 l-55 -4 -20 -52 c-10 -28 -20 -55 -22 -59 -2 -4 84 -8
191 -8 212 0 211 0 194 -55 l-9 -30 -141 3 c-161 3 -235 -9 -276 -43 -52 -44
-94 -181 -77 -250 12 -49 48 -55 325 -55 l250 0 15 53 c35 120 95 345 101 377
9 51 -9 88 -51 106 -36 15 -292 25 -425 17z m241 -326 c0 -7 -7 -34 -16 -60
l-16 -47 -118 0 c-87 0 -119 3 -123 13 -7 17 18 88 35 98 7 5 64 9 126 9 86 0
112 -3 112 -13z"/>
<path d="M9033 5513 c-100 -30 -106 -39 -182 -298 l-67 -230 89 -3 c49 -1 91
-1 93 1 2 2 27 84 54 183 28 98 53 186 56 196 8 26 32 32 163 38 l124 5 18 63
17 62 -156 -1 c-109 0 -173 -5 -209 -16z"/>
<path d="M11398 5523 c7 -3 16 -2 19 1 4 3 -2 6 -13 5 -11 0 -14 -3 -6 -6z"/>
<path d="M11718 5523 c7 -3 16 -2 19 1 4 3 -2 6 -13 5 -11 0 -14 -3 -6 -6z"/>
<path d="M12080 5516 c-102 -22 -128 -49 -164 -169 -13 -45 -40 -138 -60 -207
-21 -69 -39 -133 -42 -142 -5 -16 4 -18 89 -18 l94 0 11 48 c43 170 93 337
105 349 21 21 86 32 189 33 l87 0 6 33 c3 17 3 41 1 52 -2 11 2 23 8 27 18 13
-265 7 -324 -6z"/>
<path d="M11730 5511 c-14 -4 -24 -13 -23 -19 2 -6 -8 -18 -20 -27 -18 -11
-23 -23 -22 -48 1 -17 -4 -51 -12 -74 l-15 -43 -134 0 c-148 0 -147 -1 -124
67 15 43 46 53 168 55 l107 2 -110 6 c-108 6 -108 6 -35 10 l75 3 -75 7 c-69
6 -154 35 -145 49 9 15 -70 1 -94 -16 -36 -26 -54 -67 -101 -223 -58 -193 -52
-247 28 -270 21 -5 142 -10 274 -10 l237 0 16 52 c8 28 15 55 15 60 0 4 -87 8
-193 8 -222 0 -234 3 -223 63 l7 37 226 2 226 3 13 38 c23 66 45 186 38 211
-3 13 -15 26 -26 29 -11 3 -17 10 -14 15 3 6 -1 13 -10 16 -18 7 -20 7 -54 -3z"/>
<path d="M3953 4703 c9 -2 23 -2 30 0 6 3 -1 5 -18 5 -16 0 -22 -2 -12 -5z"/>
<path d="M3848 4693 c-13 -3 -18 -14 -17 -36 2 -30 2 -31 6 -5 3 19 12 29 26
33 12 2 31 6 42 8 12 3 8 5 -10 5 -16 0 -38 -2 -47 -5z"/>
</g>
</svg>
