<svg width="32" height="32" viewBox="0 0 32 32" xmlns="http://www.w3.org/2000/svg">
  <g fill="#00f3ff">
    <path d="M 0.25,7.25 0.20,7.30 0.15,7.30 0.00,7.45 0.00,9.26 0.05,9.31 0.05,9.36 0.20,9.51 0.25,9.51 0.35,9.61 0.40,9.61 0.45,9.66 0.50,9.66 0.60,9.76 0.65,9.76 0.70,9.81 0.75,9.81 0.86,9.91 0.91,9.91 1.01,10.01 1.06,10.01 1.16,10.11 1.21,10.11 1.26,10.16 1.31,10.16 1.41,10.26 1.46,10.26 1.51,10.31 1.56,10.31 1.66,10.42 1.71,10.42 1.76,10.47 1.81,10.47 1.91,10.57 1.96,10.57 2.06,10.67 2.11,10.67 2.16,10.72 2.21,10.72 2.31,10.82 2.36,10.82 2.42,10.87 2.47,10.87 2.57,10.97 2.62,10.97 2.67,11.02 2.72,11.02 2.82,11.12 2.87,11.12 2.97,11.22 3.02,11.22 3.07,11.27 3.12,11.27 3.17,11.32 3.22,11.32 3.32,11.42 3.37,11.42 3.47,11.52 3.52,11.52 3.62,11.62 3.67,11.62 3.72,11.67 3.77,11.67 3.87,11.77 3.92,11.77 3.97,11.82 4.03,11.82 4.13,11.92 4.18,11.92 4.23,11.97 4.28,11.97 4.38,12.08 4.43,12.08 4.53,12.18 4.58,12.18 4.68,12.28 4.73,12.28 4.78,12.33 4.83,12.33 4.93,12.43 4.98,12.43 5.03,12.48 5.08,12.48 5.18,12.58 5.23,12.58 5.33,12.68 5.38,12.68 5.43,12.73 5.48,12.73 5.53,12.78 5.58,12.78 5.69,12.88 5.74,12.88 5.79,12.93 5.84,12.93 5.94,13.03 5.99,13.03 6.09,13.13 6.14,13.13 6.19,13.18 6.24,13.18 6.34,13.28 6.39,13.28 6.49,13.38 6.54,13.38 6.59,13.43 6.64,13.43 6.74,13.53 6.79,13.53 6.89,13.64 6.94,13.64 6.99,13.69 7.04,13.69 7.09,13.74 7.14,13.74 7.25,13.84 7.30,13.84 7.40,13.94 7.45,13.94 7.55,14.04 7.60,14.04 7.65,14.09 7.70,14.09 7.80,14.19 7.85,14.19 7.90,14.24 7.95,14.24 8.05,14.34 8.10,14.34 8.15,14.39 8.20,14.39 8.30,14.49 8.35,14.49 8.45,14.59 8.50,14.59 8.55,14.64 8.60,14.64 8.70,14.74 8.75,14.74 8.86,14.84 8.91,14.84 8.96,14.89 9.01,14.89 9.11,14.99 9.16,14.99 9.26,15.09 9.31,15.09 9.36,15.14 9.41,15.14 9.51,15.25 9.56,15.25 9.61,15.30 9.66,15.30 9.76,15.40 9.81,15.40 9.91,15.50 9.96,15.50 10.01,15.55 10.06,15.55 10.16,15.65 10.21,15.65 10.26,15.70 10.31,15.70 10.42,15.80 10.47,15.80 10.52,15.85 10.52,15.90 10.57,15.95 10.57,16.55 10.52,16.60 10.52,17.31 10.26,17.56 10.16,17.56 10.11,17.61 10.06,17.61 10.01,17.66 9.96,17.66 9.91,17.71 9.81,17.71 9.76,17.76 9.71,17.76 9.66,17.81 9.61,17.81 9.56,17.86 9.51,17.86 9.46,17.91 9.41,17.91 9.36,17.96 9.26,17.96 9.21,18.01 9.16,18.01 9.11,18.06 9.06,18.06 9.01,18.11 8.96,18.11 8.91,18.16 8.86,18.16 8.81,18.21 8.75,18.21 8.70,18.26 8.60,18.26 8.55,18.31 8.50,18.31 8.45,18.36 8.40,18.36 8.35,18.42 8.30,18.42 8.25,18.47 8.15,18.47 8.10,18.52 8.00,18.52 7.95,18.57 7.90,18.57 7.85,18.62 7.80,18.62 7.75,18.67 7.70,18.67 7.65,18.72 7.55,18.72 7.50,18.77 7.45,18.77 7.40,18.82 7.35,18.82 7.30,18.87 7.25,18.87 7.19,18.92 7.14,18.92 7.09,18.97 6.99,18.97 6.94,19.02 6.89,19.02 6.84,19.07 6.79,19.07 6.74,19.12 6.69,19.12 6.64,19.17 6.59,19.17 6.54,19.22 6.44,19.22 6.39,19.27 6.34,19.27 6.29,19.32 6.24,19.32 6.19,19.37 6.09,19.37 6.04,19.42 5.99,19.42 5.94,19.47 5.89,19.47 5.84,19.52 5.74,19.52 5.69,19.57 5.64,19.57 5.58,19.62 5.53,19.62 5.48,19.67 5.43,19.67 5.33,19.77 5.33,22.44 5.38,22.49 5.38,22.54 5.43,22.54 5.48,22.59 5.64,22.59 5.69,22.64 5.84,22.64 5.89,22.69 6.09,22.69 6.14,22.74 6.29,22.74 6.34,22.79 6.49,22.79 6.54,22.84 6.69,22.84 6.74,22.89 6.89,22.89 6.94,22.94 7.09,22.94 7.14,22.99 7.35,22.99 7.40,23.04 7.55,23.04 7.60,23.09 7.75,23.09 7.80,23.14 8.00,23.14 8.05,23.19 8.20,23.19 8.25,23.25 8.40,23.25 8.45,23.30 8.65,23.30 8.70,23.35 8.91,23.35 8.96,23.40 9.11,23.40 9.16,23.45 9.36,23.45 9.41,23.50 9.66,23.50 9.71,23.55 9.86,23.55 9.91,23.60 10.11,23.60 10.16,23.65 10.52,23.65 10.57,23.60 10.62,23.60 10.67,23.55 10.72,23.55 10.77,23.50 10.82,23.50 10.92,23.40 10.97,23.40 11.02,23.35 11.07,23.35 11.12,23.30 11.22,23.30 11.32,23.19 11.37,23.19 11.42,23.14 11.47,23.14 11.57,23.04 11.62,23.04 11.67,22.99 11.72,22.99 11.77,22.94 11.82,22.94 11.87,22.89 11.92,22.89 11.97,22.84 12.03,22.84 12.13,22.74 12.18,22.74 12.23,22.69 12.28,22.69 12.33,22.64 12.38,22.64 12.43,22.59 12.48,22.59 12.58,22.49 12.63,22.49 12.68,22.44 12.73,22.44 12.78,22.39 12.88,22.39 12.98,22.29 13.03,22.29 13.08,22.24 13.13,22.24 13.23,22.14 13.28,22.14 13.33,22.09 13.38,22.09 13.43,22.04 13.48,22.04 13.53,21.99 13.58,21.99 13.69,21.89 13.74,21.89 13.79,21.84 13.84,21.84 13.89,21.79 13.94,21.79 13.99,21.74 14.04,21.74 14.14,21.64 14.24,21.64 14.34,21.53 14.39,21.53 14.44,21.48 14.49,21.48 14.54,21.43 14.59,21.43 14.64,21.38 14.69,21.38 14.79,21.28 14.84,21.28 14.89,21.23 14.94,21.23 14.99,21.18 15.04,21.18 15.09,21.13 15.14,21.13 15.19,21.08 15.25,21.08 15.35,20.98 15.40,20.98 15.45,20.93 15.50,20.93 15.55,20.88 15.60,20.88 15.65,20.83 15.70,20.83 15.75,20.78 15.80,20.78 15.85,20.73 15.90,20.73 15.95,20.68 16.00,20.68 16.05,20.73 16.10,20.73 16.15,20.78 16.20,20.78 16.25,20.83 16.30,20.83 16.35,20.88 16.40,20.88 16.45,20.93 16.50,20.93 16.60,21.03 16.65,21.03 16.70,21.08 16.75,21.08 16.81,21.13 16.86,21.13 16.91,21.18 16.96,21.18 17.06,21.28 17.11,21.28 17.16,21.33 17.21,21.33 17.26,21.38 17.31,21.38 17.41,21.48 17.51,21.48 17.56,21.53 17.61,21.53 17.71,21.64 17.76,21.64 17.81,21.69 17.86,21.69 17.91,21.74 17.96,21.74 18.01,21.79 18.06,21.79 18.11,21.84 18.16,21.84 18.26,21.94 18.31,21.94 18.36,21.99 18.42,21.99 18.47,22.04 18.52,22.04 18.57,22.09 18.62,22.09 18.67,22.14 18.72,22.14 18.77,22.19 18.82,22.19 18.92,22.29 18.97,22.29 19.02,22.34 19.07,22.34 19.12,22.39 19.17,22.39 19.22,22.44 19.27,22.44 19.32,22.49 19.37,22.49 19.42,22.54 19.47,22.54 19.57,22.64 19.62,22.64 19.67,22.69 19.72,22.69 19.77,22.74 19.82,22.74 19.87,22.79 19.92,22.79 20.03,22.89 20.08,22.89 20.13,22.94 20.18,22.94 20.23,22.99 20.28,22.99 20.33,23.04 20.38,23.04 20.48,23.14 20.53,23.14 20.58,23.19 20.63,23.19 20.68,23.25 20.73,23.25 20.78,23.30 20.83,23.30 20.88,23.35 20.93,23.35 20.98,23.40 21.03,23.40 21.08,23.45 21.13,23.45 21.23,23.55 21.28,23.55 21.33,23.60 21.38,23.60 21.43,23.65 21.79,23.65 21.84,23.60 22.04,23.60 22.09,23.55 22.29,23.55 22.34,23.50 22.54,23.50 22.59,23.45 22.79,23.45 22.84,23.40 23.04,23.40 23.09,23.35 23.30,23.35 23.35,23.30 23.50,23.30 23.55,23.25 23.70,23.25 23.75,23.19 23.95,23.19 24.00,23.14 24.15,23.14 24.20,23.09 24.40,23.09 24.45,23.04 24.60,23.04 24.65,22.99 24.81,22.99 24.86,22.94 25.01,22.94 25.06,22.89 25.21,22.89 25.26,22.84 25.41,22.84 25.46,22.79 25.61,22.79 25.66,22.74 25.81,22.74 25.86,22.69 26.01,22.69 26.06,22.64 26.26,22.64 26.31,22.59 26.52,22.59 26.57,22.54 26.57,22.49 26.62,22.44 26.62,19.72 26.57,19.67 26.47,19.67 26.42,19.62 26.36,19.62 26.31,19.57 26.26,19.57 26.21,19.52 26.16,19.52 26.11,19.47 26.06,19.47 26.01,19.42 25.91,19.42 25.86,19.37 25.81,19.37 25.76,19.32 25.71,19.32 25.66,19.27 25.61,19.27 25.56,19.22 25.46,19.22 25.41,19.17 25.36,19.17 25.31,19.12 25.26,19.12 25.21,19.07 25.16,19.07 25.11,19.02 25.01,19.02 24.96,18.97 24.91,18.97 24.86,18.92 24.81,18.92 24.75,18.87 24.70,18.87 24.65,18.82 24.55,18.82 24.50,18.77 24.45,18.77 24.40,18.72 24.35,18.72 24.30,18.67 24.25,18.67 24.20,18.62 24.15,18.62 24.10,18.57 24.00,18.57 23.95,18.52 23.90,18.52 23.85,18.47 23.75,18.47 23.70,18.42 23.65,18.42 23.60,18.36 23.55,18.36 23.50,18.31 23.45,18.31 23.40,18.26 23.30,18.26 23.25,18.21 23.19,18.21 23.14,18.16 23.09,18.16 23.04,18.11 22.99,18.11 22.94,18.06 22.84,18.06 22.79,18.01 22.74,18.01 22.69,17.96 22.64,17.96 22.59,17.91 22.54,17.91 22.49,17.86 22.39,17.86 22.29,17.76 22.19,17.76 22.14,17.71 22.09,17.71 22.04,17.66 21.94,17.66 21.89,17.61 21.84,17.61 21.79,17.56 21.74,17.56 21.69,17.51 21.64,17.51 21.48,17.36 21.48,17.26 21.43,17.21 21.43,16.55 21.38,16.50 21.38,15.90 21.48,15.80 21.53,15.80 21.64,15.70 21.69,15.70 21.74,15.65 21.79,15.65 21.89,15.55 21.94,15.55 21.99,15.50 22.04,15.50 22.14,15.40 22.19,15.40 22.29,15.30 22.34,15.30 22.39,15.25 22.44,15.25 22.54,15.14 22.59,15.14 22.64,15.09 22.69,15.09 22.79,14.99 22.84,14.99 22.94,14.89 22.99,14.89 23.09,14.79 23.14,14.79 23.19,14.74 23.25,14.74 23.35,14.64 23.40,14.64 23.50,14.54 23.55,14.54 23.60,14.49 23.65,14.49 23.75,14.39 23.80,14.39 23.85,14.34 23.90,14.34 24.00,14.24 24.05,14.24 24.10,14.19 24.15,14.19 24.25,14.09 24.30,14.09 24.40,13.99 24.45,13.99 24.55,13.89 24.60,13.89 24.65,13.84 24.70,13.84 24.81,13.74 24.86,13.74 24.91,13.69 24.96,13.69 25.06,13.58 25.11,13.58 25.16,13.53 25.21,13.53 25.31,13.43 25.36,13.43 25.46,13.33 25.51,13.33 25.56,13.28 25.61,13.28 25.71,13.18 25.76,13.18 25.81,13.13 25.86,13.13 25.96,13.03 26.01,13.03 26.11,12.93 26.16,12.93 26.26,12.83 26.31,12.83 26.36,12.78 26.42,12.78 26.47,12.73 26.52,12.73 26.62,12.63 26.67,12.63 26.77,12.53 26.82,12.53 26.87,12.48 26.92,12.48 27.02,12.38 27.07,12.38 27.17,12.28 27.22,12.28 27.27,12.23 27.32,12.23 27.42,12.13 27.47,12.13 27.57,12.03 27.62,12.03 27.67,11.97 27.72,11.97 27.77,11.92 27.82,11.92 27.92,11.82 27.97,11.82 28.08,11.72 28.13,11.72 28.18,11.67 28.23,11.67 28.33,11.57 28.38,11.57 28.48,11.47 28.53,11.47 28.58,11.42 28.63,11.42 28.73,11.32 28.78,11.32 28.83,11.27 28.88,11.27 28.98,11.17 29.03,11.17 29.08,11.12 29.13,11.12 29.23,11.02 29.28,11.02 29.38,10.92 29.43,10.92 29.53,10.82 29.58,10.82 29.64,10.77 29.69,10.77 29.79,10.67 29.84,10.67 29.94,10.57 29.99,10.57 30.04,10.52 30.09,10.52 30.19,10.42 30.24,10.42 30.29,10.36 30.34,10.36 30.44,10.26 30.49,10.26 30.54,10.21 30.59,10.21 30.69,10.11 30.74,10.11 30.79,10.06 30.84,10.06 30.99,9.91 31.04,9.91 31.09,9.86 31.14,9.86 31.25,9.76 31.30,9.76 31.35,9.71 31.40,9.71 31.50,9.61 31.55,9.61 31.60,9.56 31.65,9.56 31.70,9.51 31.75,9.51 31.90,9.36 31.90,9.31 31.95,9.26 31.95,7.50 31.90,7.45 31.90,7.40 31.80,7.30 31.70,7.30 31.65,7.25 20.88,7.25 20.83,7.30 20.83,12.48 20.78,12.53 20.73,12.53 20.63,12.63 20.58,12.63 20.53,12.68 20.48,12.68 20.43,12.73 20.38,12.73 20.33,12.78 20.28,12.78 20.23,12.83 20.18,12.83 20.13,12.88 20.08,12.88 20.03,12.93 19.97,12.93 19.92,12.98 19.87,12.98 19.82,13.03 19.77,13.03 19.72,13.08 19.67,13.08 19.62,13.13 19.57,13.13 19.52,13.18 19.47,13.18 19.42,13.23 19.37,13.23 19.32,13.28 19.27,13.28 19.22,13.33 19.17,13.33 19.12,13.38 19.07,13.38 19.02,13.43 18.97,13.43 18.92,13.48 18.87,13.48 18.77,13.58 18.67,13.58 18.62,13.64 18.57,13.64 18.47,13.74 18.42,13.74 18.36,13.79 18.31,13.79 18.26,13.84 18.21,13.84 18.16,13.89 18.11,13.89 18.06,13.94 18.01,13.94 17.96,13.99 17.91,13.99 17.86,14.04 17.81,14.04 17.76,14.09 17.71,14.09 17.66,14.14 17.61,14.14 17.56,14.19 17.51,14.19 17.46,14.24 17.41,14.24 17.36,14.29 17.31,14.29 17.26,14.34 17.21,14.34 17.16,14.39 17.11,14.39 17.06,14.44 17.01,14.44 16.96,14.49 16.91,14.49 16.86,14.54 16.81,14.54 16.75,14.59 16.70,14.59 16.60,14.69 16.55,14.69 16.50,14.74 16.45,14.74 16.40,14.79 16.35,14.79 16.30,14.84 16.25,14.84 16.20,14.89 16.15,14.89 16.10,14.94 16.05,14.94 16.00,14.99 15.95,14.99 15.90,15.04 15.85,15.04 15.80,15.09 15.75,15.09 15.70,15.14 15.65,15.14 15.60,15.19 15.55,15.19 15.50,15.25 15.45,15.25 15.40,15.30 15.35,15.30 15.30,15.35 15.30,15.40 15.35,15.45 15.40,15.45 15.50,15.55 15.55,15.55 15.70,15.70 15.75,15.70 15.85,15.80 15.90,15.80 16.00,15.90 16.05,15.90 16.10,15.95 16.15,15.95 16.25,16.05 16.30,16.05 16.45,16.20 16.50,16.20 16.60,16.30 16.65,16.30 16.75,16.40 16.81,16.40 16.91,16.50 16.96,16.50 17.06,16.60 17.11,16.60 17.21,16.70 17.26,16.70 17.36,16.81 17.41,16.81 17.51,16.91 17.56,16.91 17.66,17.01 17.71,17.01 17.81,17.11 17.86,17.11 17.96,17.21 18.01,17.21 18.11,17.31 18.16,17.31 18.26,17.41 18.31,17.41 18.42,17.51 18.47,17.51 18.57,17.61 18.62,17.61 18.72,17.71 18.77,17.71 18.87,17.81 18.92,17.81 19.02,17.91 19.07,17.91 19.17,18.01 19.22,18.01 19.32,18.11 19.37,18.11 19.47,18.21 19.52,18.21 19.62,18.31 19.67,18.31 19.77,18.42 19.82,18.42 19.97,18.57 20.03,18.57 20.08,18.62 20.13,18.62 20.23,18.72 20.28,18.72 20.43,18.87 20.48,18.87 20.58,18.97 20.63,18.97 20.73,19.07 20.78,19.07 20.83,19.12 20.88,19.12 20.98,19.22 21.03,19.22 21.13,19.32 21.18,19.32 21.33,19.47 21.38,19.47 21.48,19.57 21.53,19.57 21.64,19.67 21.69,19.67 21.84,19.82 21.89,19.82 21.99,19.92 21.94,19.97 21.84,19.97 21.79,19.92 21.74,19.92 21.69,19.87 21.58,19.87 21.53,19.82 21.48,19.82 21.43,19.77 21.33,19.77 21.28,19.72 21.23,19.72 21.18,19.67 21.08,19.67 21.03,19.62 20.98,19.62 20.93,19.57 20.83,19.57 20.78,19.52 20.73,19.52 20.68,19.47 20.63,19.47 20.58,19.42 20.48,19.42 20.43,19.37 20.38,19.37 20.33,19.32 20.28,19.32 20.23,19.27 20.13,19.27 20.08,19.22 20.03,19.22 19.97,19.17 19.87,19.17 19.82,19.12 19.77,19.12 19.72,19.07 19.67,19.07 19.62,19.02 19.57,19.02 19.52,18.97 19.47,18.97 19.42,18.92 19.32,18.92 19.27,18.87 19.22,18.87 19.17,18.82 19.12,18.82 19.07,18.77 19.02,18.77 18.97,18.72 18.92,18.72 18.87,18.67 18.82,18.67 18.77,18.62 18.72,18.62 18.67,18.57 18.62,18.57 18.57,18.52 18.47,18.52 18.42,18.47 18.31,18.47 18.26,18.42 18.16,18.42 18.11,18.36 18.06,18.36 18.01,18.31 17.96,18.31 17.91,18.26 17.81,18.26 17.76,18.21 17.71,18.21 17.61,18.11 17.56,18.11 17.46,18.01 17.41,18.01 17.31,17.91 17.26,17.91 17.16,17.81 17.11,17.81 17.01,17.71 16.96,17.71 16.91,17.66 16.86,17.66 16.75,17.56 16.70,17.56 16.60,17.46 16.55,17.46 16.45,17.36 16.40,17.36 16.30,17.26 16.25,17.26 16.15,17.16 16.10,17.16 16.00,17.06 15.95,17.06 15.90,17.01 15.85,17.01 15.75,16.91 15.70,16.91 15.60,16.81 15.55,16.81 15.40,16.65 15.35,16.65 15.30,16.60 15.25,16.60 15.14,16.50 15.09,16.50 14.99,16.40 14.94,16.40 14.84,16.30 14.79,16.30 14.69,16.20 14.64,16.20 14.54,16.10 14.49,16.10 14.39,16.00 14.34,16.00 14.29,15.95 14.24,15.95 14.14,15.85 14.09,15.85 13.99,15.75 13.94,15.75 13.84,15.65 13.79,15.65 13.69,15.55 13.64,15.55 13.53,15.45 13.48,15.45 13.43,15.40 13.38,15.40 13.33,15.35 13.33,15.19 13.38,15.14 13.43,15.14 13.48,15.09 13.53,15.09 13.58,15.04 13.69,15.04 13.74,14.99 13.79,14.99 13.84,14.94 13.89,14.94 13.94,14.89 13.99,14.89 14.09,14.79 14.14,14.79 14.19,14.74 14.24,14.74 14.29,14.69 14.34,14.69 14.39,14.64 14.44,14.64 14.49,14.59 14.54,14.59 14.59,14.54 14.64,14.54 14.69,14.49 14.74,14.49 14.79,14.44 14.84,14.44 14.89,14.39 14.94,14.39 14.99,14.34 15.04,14.34 15.09,14.29 15.14,14.29 15.19,14.24 15.25,14.24 15.30,14.19 15.35,14.19 15.40,14.14 15.45,14.14 15.50,14.09 15.55,14.09 15.60,14.04 15.65,14.04 15.70,13.99 15.75,13.99 15.80,13.94 15.85,13.94 15.90,13.89 15.95,13.89 16.00,13.84 16.05,13.84 16.10,13.79 16.15,13.79 16.20,13.74 16.25,13.74 16.30,13.69 16.35,13.69 16.40,13.64 16.45,13.64 16.50,13.58 16.55,13.58 16.60,13.53 16.65,13.53 16.70,13.48 16.75,13.48 16.81,13.43 16.86,13.43 16.91,13.38 16.96,13.38 17.01,13.33 17.06,13.33 17.11,13.28 17.16,13.28 17.21,13.23 17.26,13.23 17.36,13.13 17.41,13.13 17.46,13.08 17.51,13.08 17.56,13.03 17.66,13.03 17.71,12.98 17.76,12.98 17.86,12.88 17.91,12.88 17.96,12.83 18.01,12.83 18.06,12.78 18.11,12.78 18.16,12.73 18.21,12.73 18.26,12.68 18.31,12.68 18.36,12.63 18.42,12.63 18.47,12.58 18.52,12.58 18.57,12.53 18.62,12.53 18.67,12.48 18.72,12.48 18.77,12.43 18.82,12.43 18.87,12.38 18.92,12.38 18.97,12.33 19.02,12.33 19.07,12.28 19.12,12.28 19.17,12.23 19.22,12.23 19.27,12.18 19.32,12.18 19.37,12.13 19.42,12.13 19.47,12.08 19.52,12.08 19.57,12.03 19.62,12.03 19.67,11.97 19.67,10.01 19.72,9.96 19.72,7.30 19.67,7.25 Z" /> <path d="M 23.85,0.05 23.80,0.10 23.75,0.10 23.70,0.15 23.65,0.15 23.60,0.20 23.55,0.20 23.45,0.30 23.40,0.30 23.35,0.35 23.30,0.35 23.19,0.45 23.14,0.45 23.09,0.50 23.04,0.50 22.94,0.60 22.89,0.60 22.84,0.65 22.79,0.65 22.74,0.70 22.69,0.70 22.64,0.75 22.59,0.75 22.49,0.86 22.44,0.86 22.39,0.91 22.34,0.91 22.29,0.96 22.24,0.96 22.14,1.06 22.09,1.06 22.04,1.11 21.99,1.11 21.89,1.21 21.84,1.21 21.79,1.26 21.74,1.21 21.64,1.21 21.53,1.11 21.48,1.11 21.43,1.06 21.38,1.06 21.33,1.01 21.28,1.01 21.18,0.91 21.13,0.91 21.08,0.86 21.03,0.86 20.98,0.81 20.93,0.81 20.83,0.70 20.78,0.70 20.73,0.65 20.68,0.65 20.63,0.60 20.58,0.60 20.58,1.96 20.33,2.21 20.28,2.21 20.23,2.26 20.18,2.26 20.13,2.31 20.08,2.31 20.03,2.36 19.97,2.36 19.97,2.47 20.03,2.47 20.08,2.52 20.13,2.52 20.18,2.57 20.23,2.57 20.33,2.67 20.38,2.67 20.43,2.72 20.48,2.72 20.58,2.82 20.63,2.82 20.68,2.87 20.73,2.87 20.83,2.97 20.88,2.97 20.93,3.02 20.98,3.02 21.03,3.07 21.08,3.07 21.18,3.17 21.23,3.17 21.28,3.22 21.28,4.58 21.33,4.63 21.33,4.68 21.48,4.83 21.53,4.83 21.58,4.88 21.64,4.88 21.69,4.93 21.74,4.93 21.84,5.03 21.89,5.03 21.94,5.08 21.99,5.08 22.09,5.18 22.14,5.18 22.19,5.23 22.24,5.23 22.34,5.33 22.39,5.33 22.44,5.38 22.49,5.38 22.54,5.43 22.59,5.43 22.69,5.53 22.74,5.53 22.79,5.58 22.84,5.58 22.94,5.69 22.99,5.69 23.04,5.74 23.09,5.74 23.14,5.79 23.19,5.79 23.30,5.89 23.35,5.89 23.40,5.94 23.45,5.94 23.55,6.04 23.60,6.04 23.65,6.09 23.70,6.09 23.80,6.19 24.10,6.19 24.15,6.14 24.25,6.14 24.35,6.04 24.40,6.04 24.45,5.99 24.50,5.99 24.60,5.89 24.65,5.89 24.70,5.84 24.75,5.84 24.86,5.74 24.91,5.74 24.96,5.69 25.01,5.69 25.06,5.64 25.11,5.64 25.21,5.53 25.26,5.53 25.31,5.48 25.36,5.48 25.41,5.43 25.46,5.43 25.56,5.33 25.61,5.33 25.66,5.28 25.71,5.28 25.81,5.18 25.86,5.18 25.91,5.13 25.96,5.13 26.06,5.03 26.11,5.03 26.16,4.98 26.21,4.98 26.26,4.93 26.31,4.93 26.36,4.88 26.42,4.88 26.52,4.78 26.57,4.78 26.62,4.73 26.62,4.68 26.67,4.63 26.67,1.56 26.52,1.41 26.47,1.41 26.42,1.36 26.36,1.36 26.26,1.26 26.21,1.26 26.16,1.21 26.11,1.21 26.06,1.16 26.01,1.16 25.91,1.06 25.86,1.06 25.81,1.01 25.76,1.01 25.71,0.96 25.66,0.96 25.56,0.86 25.51,0.86 25.46,0.81 25.41,0.81 25.31,0.70 25.26,0.70 25.21,0.65 25.16,0.65 25.11,0.60 25.06,0.60 25.01,0.55 24.96,0.55 24.86,0.45 24.81,0.45 24.75,0.40 24.70,0.40 24.60,0.30 24.55,0.30 24.50,0.25 24.45,0.25 24.40,0.20 24.35,0.20 24.25,0.10 24.20,0.10 24.15,0.05 Z" /> <path d="M 7.85,0.00 7.80,0.05 7.75,0.05 7.70,0.10 7.65,0.10 7.60,0.15 7.55,0.15 7.50,0.20 7.45,0.20 7.35,0.30 7.30,0.30 7.25,0.35 7.19,0.35 7.09,0.45 7.04,0.45 6.99,0.50 6.94,0.50 6.84,0.60 6.79,0.60 6.74,0.65 6.69,0.65 6.64,0.70 6.59,0.70 6.54,0.75 6.49,0.75 6.39,0.86 6.34,0.86 6.29,0.91 6.24,0.91 6.19,0.96 6.14,0.96 6.09,1.01 6.04,1.01 5.94,1.11 5.89,1.11 5.79,1.21 5.74,1.21 5.69,1.26 5.64,1.26 5.53,1.36 5.48,1.36 5.43,1.41 5.38,1.41 5.28,1.51 5.28,1.56 5.23,1.61 5.23,4.53 5.28,4.58 5.28,4.68 5.38,4.78 5.43,4.78 5.48,4.83 5.53,4.83 5.58,4.88 5.64,4.88 5.69,4.93 5.74,4.93 5.84,5.03 5.89,5.03 5.94,5.08 5.99,5.08 6.09,5.18 6.14,5.18 6.19,5.23 6.24,5.23 6.34,5.33 6.39,5.33 6.44,5.38 6.49,5.38 6.54,5.43 6.59,5.43 6.69,5.53 6.74,5.53 6.79,5.58 6.84,5.58 6.94,5.69 6.99,5.69 7.04,5.74 7.09,5.74 7.14,5.79 7.19,5.79 7.30,5.89 7.35,5.89 7.45,5.99 7.50,5.99 7.55,6.04 7.60,6.04 7.65,6.09 7.70,6.09 7.75,6.14 7.85,6.14 7.90,6.19 8.05,6.19 8.10,6.14 8.20,6.14 8.30,6.04 8.35,6.04 8.40,5.99 8.45,5.99 8.55,5.89 8.60,5.89 8.65,5.84 8.70,5.84 8.81,5.74 8.86,5.74 8.91,5.69 8.96,5.69 9.01,5.64 9.06,5.64 9.16,5.53 9.21,5.53 9.26,5.48 9.31,5.48 9.36,5.43 9.41,5.43 9.51,5.33 9.56,5.33 9.61,5.28 9.66,5.28 9.71,5.23 9.76,5.23 9.86,5.13 9.91,5.13 9.96,5.08 10.01,5.08 10.11,4.98 10.16,4.98 10.21,4.93 10.26,4.93 10.31,4.88 10.36,4.88 10.47,4.78 10.52,4.78 10.62,4.68 10.62,4.58 10.67,4.53 10.67,4.28 10.62,4.23 10.62,3.27 10.77,3.12 10.82,3.12 10.87,3.07 10.92,3.07 10.97,3.02 11.02,3.02 11.12,2.92 11.17,2.92 11.22,2.87 11.27,2.87 11.32,2.82 11.37,2.82 11.47,2.72 11.52,2.72 11.57,2.67 11.62,2.67 11.72,2.57 11.77,2.57 11.82,2.52 11.87,2.52 11.92,2.47 11.97,2.47 12.03,2.42 11.97,2.36 11.92,2.36 11.87,2.31 11.82,2.31 11.77,2.26 11.72,2.26 11.62,2.16 11.57,2.16 11.37,1.96 11.37,0.55 11.27,0.65 11.22,0.65 11.17,0.70 11.12,0.70 11.07,0.75 11.02,0.75 10.97,0.81 10.92,0.81 10.82,0.91 10.77,0.91 10.72,0.96 10.67,0.96 10.62,1.01 10.57,1.01 10.47,1.11 10.42,1.11 10.36,1.16 10.31,1.16 10.26,1.21 10.11,1.21 10.06,1.16 10.01,1.16 9.91,1.06 9.86,1.06 9.81,1.01 9.76,1.01 9.71,0.96 9.66,0.96 9.56,0.86 9.51,0.86 9.46,0.81 9.41,0.81 9.36,0.75 9.31,0.75 9.21,0.65 9.16,0.65 9.11,0.60 9.06,0.60 8.96,0.50 8.91,0.50 8.86,0.45 8.81,0.45 8.75,0.40 8.70,0.40 8.60,0.30 8.55,0.30 8.50,0.25 8.45,0.25 8.40,0.20 8.35,0.20 8.25,0.10 8.20,0.10 8.15,0.05 8.10,0.05 8.05,0.00 Z" />
  </g>
</svg>