<svg width="1024" height="1024" viewBox="0 0 1024 1024" xmlns="http://www.w3.org/2000/svg">
  <defs>
    <filter id="glow" x="-20%" y="-20%" width="140%" height="140%">
      <feGaussianBlur stdDeviation="5" result="blur" />
      <feComposite in="SourceGraphic" in2="blur" operator="over" />
    </filter>
  </defs>
  <rect width="100%" height="100%" fill="rgba(5, 5, 16, 0.8)" />
  <g filter="url(#glow)">
    <path d="M 199,458 198,459 197,459 194,462 194,498 195,499 195,500 198,503 199,503 201,505 202,505 203,506 204,506 206,508 207,508 208,509 209,509 211,511 212,511 214,513 215,513 217,515 218,515 219,516 220,516 222,518 223,518 224,519 225,519 227,521 228,521 229,522 230,522 232,524 233,524 235,526 236,526 237,527 238,527 240,529 241,529 242,530 243,530 245,532 246,532 247,533 248,533 250,535 251,535 253,537 254,537 255,538 256,538 257,539 258,539 260,541 261,541 263,543 264,543 266,545 267,545 268,546 269,546 271,548 272,548 273,549 274,549 276,551 277,551 278,552 279,552 281,554 282,554 284,556 285,556 287,558 288,558 289,559 290,559 292,561 293,561 294,562 295,562 297,564 298,564 300,566 301,566 302,567 303,567 304,568 305,568 307,570 308,570 309,571 310,571 312,573 313,573 315,575 316,575 317,576 318,576 320,578 321,578 323,580 324,580 325,581 326,581 328,583 329,583 331,585 332,585 333,586 334,586 335,587 336,587 338,589 339,589 341,591 342,591 344,593 345,593 346,594 347,594 349,596 350,596 351,597 352,597 354,599 355,599 356,600 357,600 359,602 360,602 362,604 363,604 364,605 365,605 367,607 368,607 370,609 371,609 372,610 373,610 375,612 376,612 378,614 379,614 380,615 381,615 383,617 384,617 385,618 386,618 388,620 389,620 391,622 392,622 393,623 394,623 396,625 397,625 398,626 399,626 401,628 402,628 403,629 403,630 404,631 404,643 403,644 403,658 398,663 396,663 395,664 394,664 393,665 392,665 391,666 389,666 388,667 387,667 386,668 385,668 384,669 383,669 382,670 381,670 380,671 378,671 377,672 376,672 375,673 374,673 373,674 372,674 371,675 370,675 369,676 368,676 367,677 365,677 364,678 363,678 362,679 361,679 360,680 359,680 358,681 356,681 355,682 353,682 352,683 351,683 350,684 349,684 348,685 347,685 346,686 344,686 343,687 342,687 341,688 340,688 339,689 338,689 337,690 336,690 335,691 333,691 332,692 331,692 330,693 329,693 328,694 327,694 326,695 325,695 324,696 322,696 321,697 320,697 319,698 318,698 317,699 315,699 314,700 313,700 312,701 311,701 310,702 308,702 307,703 306,703 305,704 304,704 303,705 302,705 300,707 300,760 301,761 301,762 302,762 303,763 306,763 307,764 310,764 311,765 315,765 316,766 319,766 320,767 323,767 324,768 327,768 328,769 331,769 332,770 335,770 336,771 340,771 341,772 344,772 345,773 348,773 349,774 353,774 354,775 357,775 358,776 361,776 362,777 366,777 367,778 371,778 372,779 375,779 376,780 380,780 381,781 386,781 387,782 390,782 391,783 395,783 396,784 403,784 404,783 405,783 406,782 407,782 408,781 409,781 411,779 412,779 413,778 414,778 415,777 417,777 419,775 420,775 421,774 422,774 424,772 425,772 426,771 427,771 428,770 429,770 430,769 431,769 432,768 433,768 435,766 436,766 437,765 438,765 439,764 440,764 441,763 442,763 444,761 445,761 446,760 447,760 448,759 450,759 452,757 453,757 454,756 455,756 457,754 458,754 459,753 460,753 461,752 462,752 463,751 464,751 466,749 467,749 468,748 469,748 470,747 471,747 472,746 473,746 475,744 477,744 479,742 480,742 481,741 482,741 483,740 484,740 485,739 486,739 488,737 489,737 490,736 491,736 492,735 493,735 494,734 495,734 496,733 497,733 499,731 500,731 501,730 502,730 503,729 504,729 505,728 506,728 507,727 508,727 509,726 510,726 511,725 512,725 513,726 514,726 515,727 516,727 517,728 518,728 519,729 520,729 521,730 522,730 524,732 525,732 526,733 527,733 528,734 529,734 530,735 531,735 533,737 534,737 535,738 536,738 537,739 538,739 540,741 542,741 543,742 544,742 546,744 547,744 548,745 549,745 550,746 551,746 552,747 553,747 554,748 555,748 557,750 558,750 559,751 560,751 561,752 562,752 563,753 564,753 565,754 566,754 567,755 568,755 570,757 571,757 572,758 573,758 574,759 575,759 576,760 577,760 578,761 579,761 580,762 581,762 583,764 584,764 585,765 586,765 587,766 588,766 589,767 590,767 592,769 593,769 594,770 595,770 596,771 597,771 598,772 599,772 601,774 602,774 603,775 604,775 605,776 606,776 607,777 608,777 609,778 610,778 611,779 612,779 613,780 614,780 616,782 617,782 618,783 619,783 620,784 627,784 628,783 632,783 633,782 637,782 638,781 642,781 643,780 647,780 648,779 652,779 653,778 657,778 658,777 661,777 662,776 665,776 666,775 670,775 671,774 674,774 675,773 679,773 680,772 683,772 684,771 687,771 688,770 691,770 692,769 695,769 696,768 699,768 700,767 703,767 704,766 707,766 708,765 711,765 712,764 716,764 717,763 721,763 722,762 722,761 723,760 723,706 722,705 720,705 719,704 718,704 717,703 716,703 715,702 714,702 713,701 712,701 711,700 709,700 708,699 707,699 706,698 705,698 704,697 703,697 702,696 700,696 699,695 698,695 697,694 696,694 695,693 694,693 693,692 691,692 690,691 689,691 688,690 687,690 686,689 685,689 684,688 682,688 681,687 680,687 679,686 678,686 677,685 676,685 675,684 674,684 673,683 671,683 670,682 669,682 668,681 666,681 665,680 664,680 663,679 662,679 661,678 660,678 659,677 657,677 656,676 655,676 654,675 653,675 652,674 651,674 650,673 648,673 647,672 646,672 645,671 644,671 643,670 642,670 641,669 639,669 637,667 635,667 634,666 633,666 632,665 630,665 629,664 628,664 627,663 626,663 625,662 624,662 621,659 621,657 620,656 620,643 619,642 619,630 621,628 622,628 624,626 625,626 626,625 627,625 629,623 630,623 631,622 632,622 634,620 635,620 637,618 638,618 639,617 640,617 642,615 643,615 644,614 645,614 647,612 648,612 650,610 651,610 653,608 654,608 655,607 656,607 658,605 659,605 661,603 662,603 663,602 664,602 666,600 667,600 668,599 669,599 671,597 672,597 673,596 674,596 676,594 677,594 679,592 680,592 682,590 683,590 684,589 685,589 687,587 688,587 689,586 690,586 692,584 693,584 694,583 695,583 697,581 698,581 700,579 701,579 702,578 703,578 705,576 706,576 707,575 708,575 710,573 711,573 713,571 714,571 716,569 717,569 718,568 719,568 720,567 721,567 723,565 724,565 726,563 727,563 728,562 729,562 731,560 732,560 734,558 735,558 736,557 737,557 739,555 740,555 742,553 743,553 744,552 745,552 746,551 747,551 749,549 750,549 752,547 753,547 754,546 755,546 757,544 758,544 760,542 761,542 762,541 763,541 765,539 766,539 767,538 768,538 770,536 771,536 772,535 773,535 775,533 776,533 778,531 779,531 781,529 782,529 783,528 784,528 786,526 787,526 789,524 790,524 791,523 792,523 794,521 795,521 796,520 797,520 799,518 800,518 801,517 802,517 804,515 805,515 806,514 807,514 810,511 811,511 812,510 813,510 815,508 816,508 817,507 818,507 820,505 821,505 822,504 823,504 824,503 825,503 828,500 828,499 829,498 829,463 828,462 828,461 826,459 824,459 823,458 609,458 608,459 608,562 607,563 606,563 604,565 603,565 602,566 601,566 600,567 599,567 598,568 597,568 596,569 595,569 594,570 593,570 592,571 591,571 590,572 589,572 588,573 587,573 586,574 585,574 584,575 583,575 582,576 581,576 580,577 579,577 578,578 577,578 576,579 575,579 574,580 573,580 572,581 571,581 570,582 569,582 567,584 565,584 564,585 563,585 561,587 560,587 559,588 558,588 557,589 556,589 555,590 554,590 553,591 552,591 551,592 550,592 549,593 548,593 547,594 546,594 545,595 544,595 543,596 542,596 541,597 540,597 539,598 538,598 537,599 536,599 535,600 534,600 533,601 532,601 531,602 530,602 529,603 528,603 527,604 526,604 524,606 523,606 522,607 521,607 520,608 519,608 518,609 517,609 516,610 515,610 514,611 513,611 512,612 511,612 510,613 509,613 508,614 507,614 506,615 505,615 504,616 503,616 502,617 501,617 500,618 499,618 498,619 498,620 499,621 500,621 502,623 503,623 506,626 507,626 509,628 510,628 512,630 513,630 514,631 515,631 517,633 518,633 521,636 522,636 524,638 525,638 527,640 528,640 530,642 531,642 533,644 534,644 536,646 537,646 539,648 540,648 542,650 543,650 545,652 546,652 548,654 549,654 551,656 552,656 554,658 555,658 557,660 558,660 560,662 561,662 563,664 564,664 566,666 567,666 569,668 570,668 572,670 573,670 575,672 576,672 578,674 579,674 581,676 582,676 584,678 585,678 587,680 588,680 591,683 592,683 593,684 594,684 596,686 597,686 600,689 601,689 603,691 604,691 606,693 607,693 608,694 609,694 611,696 612,696 614,698 615,698 618,701 619,701 621,703 622,703 624,705 625,705 628,708 629,708 631,710 630,711 628,711 627,710 626,710 625,709 623,709 622,708 621,708 620,707 618,707 617,706 616,706 615,705 613,705 612,704 611,704 610,703 608,703 607,702 606,702 605,701 604,701 603,700 601,700 600,699 599,699 598,698 597,698 596,697 594,697 593,696 592,696 591,695 589,695 588,694 587,694 586,693 585,693 584,692 583,692 582,691 581,691 580,690 578,690 577,689 576,689 575,688 574,688 573,687 572,687 571,686 570,686 569,685 568,685 567,684 566,684 565,683 564,683 563,682 561,682 560,681 558,681 557,680 555,680 554,679 553,679 552,678 551,678 550,677 548,677 547,676 546,676 544,674 543,674 541,672 540,672 538,670 537,670 535,668 534,668 532,666 531,666 530,665 529,665 527,663 526,663 524,661 523,661 521,659 520,659 518,657 517,657 515,655 514,655 512,653 511,653 510,652 509,652 507,650 506,650 504,648 503,648 500,645 499,645 498,644 497,644 495,642 494,642 492,640 491,640 489,638 488,638 486,636 485,636 483,634 482,634 480,632 479,632 478,631 477,631 475,629 474,629 472,627 471,627 469,625 468,625 466,623 465,623 463,621 462,621 461,620 460,620 459,619 459,616 460,615 461,615 462,614 463,614 464,613 466,613 467,612 468,612 469,611 470,611 471,610 472,610 474,608 475,608 476,607 477,607 478,606 479,606 480,605 481,605 482,604 483,604 484,603 485,603 486,602 487,602 488,601 489,601 490,600 491,600 492,599 493,599 494,598 495,598 496,597 497,597 498,596 499,596 500,595 501,595 502,594 503,594 504,593 505,593 506,592 507,592 508,591 509,591 510,590 511,590 512,589 513,589 514,588 515,588 516,587 517,587 518,586 519,586 520,585 521,585 522,584 523,584 524,583 525,583 526,582 527,582 528,581 529,581 530,580 531,580 532,579 533,579 534,578 535,578 536,577 537,577 539,575 540,575 541,574 542,574 543,573 545,573 546,572 547,572 549,570 550,570 551,569 552,569 553,568 554,568 555,567 556,567 557,566 558,566 559,565 560,565 561,564 562,564 563,563 564,563 565,562 566,562 567,561 568,561 569,560 570,560 571,559 572,559 573,558 574,558 575,557 576,557 577,556 578,556 579,555 580,555 581,554 582,554 583,553 584,553 585,552 585,513 586,512 586,459 585,458 Z" fill="#00f3ff" /> <path d="M 668,315 667,316 666,316 665,317 664,317 663,318 662,318 660,320 659,320 658,321 657,321 655,323 654,323 653,324 652,324 650,326 649,326 648,327 647,327 646,328 645,328 644,329 643,329 641,331 640,331 639,332 638,332 637,333 636,333 634,335 633,335 632,336 631,336 629,338 628,338 627,339 626,338 624,338 622,336 621,336 620,335 619,335 618,334 617,334 615,332 614,332 613,331 612,331 611,330 610,330 608,328 607,328 606,327 605,327 604,326 603,326 603,353 598,358 597,358 596,359 595,359 594,360 593,360 592,361 591,361 591,363 592,363 593,364 594,364 595,365 596,365 598,367 599,367 600,368 601,368 603,370 604,370 605,371 606,371 608,373 609,373 610,374 611,374 612,375 613,375 615,377 616,377 617,378 617,405 618,406 618,407 621,410 622,410 623,411 624,411 625,412 626,412 628,414 629,414 630,415 631,415 633,417 634,417 635,418 636,418 638,420 639,420 640,421 641,421 642,422 643,422 645,424 646,424 647,425 648,425 650,427 651,427 652,428 653,428 654,429 655,429 657,431 658,431 659,432 660,432 662,434 663,434 664,435 665,435 667,437 673,437 674,436 676,436 678,434 679,434 680,433 681,433 683,431 684,431 685,430 686,430 688,428 689,428 690,427 691,427 692,426 693,426 695,424 696,424 697,423 698,423 699,422 700,422 702,420 703,420 704,419 705,419 707,417 708,417 709,416 710,416 712,414 713,414 714,413 715,413 716,412 717,412 718,411 719,411 721,409 722,409 723,408 723,407 724,406 724,345 721,342 720,342 719,341 718,341 716,339 715,339 714,338 713,338 712,337 711,337 709,335 708,335 707,334 706,334 705,333 704,333 702,331 701,331 700,330 699,330 697,328 696,328 695,327 694,327 693,326 692,326 691,325 690,325 688,323 687,323 686,322 685,322 683,320 682,320 681,319 680,319 679,318 678,318 676,316 675,316 674,315 Z" fill="#00f3ff" /> <path d="M 350,314 349,315 348,315 347,316 346,316 345,317 344,317 343,318 342,318 340,320 339,320 338,321 337,321 335,323 334,323 333,324 332,324 330,326 329,326 328,327 327,327 326,328 325,328 324,329 323,329 321,331 320,331 319,332 318,332 317,333 316,333 315,334 314,334 312,336 311,336 309,338 308,338 307,339 306,339 304,341 303,341 302,342 301,342 299,344 299,345 298,346 298,404 299,405 299,407 301,409 302,409 303,410 304,410 305,411 306,411 307,412 308,412 310,414 311,414 312,415 313,415 315,417 316,417 317,418 318,418 320,420 321,420 322,421 323,421 324,422 325,422 327,424 328,424 329,425 330,425 332,427 333,427 334,428 335,428 336,429 337,429 339,431 340,431 342,433 343,433 344,434 345,434 346,435 347,435 348,436 350,436 351,437 354,437 355,436 357,436 359,434 360,434 361,433 362,433 364,431 365,431 366,430 367,430 369,428 370,428 371,427 372,427 373,426 374,426 376,424 377,424 378,423 379,423 380,422 381,422 383,420 384,420 385,419 386,419 387,418 388,418 390,416 391,416 392,415 393,415 395,413 396,413 397,412 398,412 399,411 400,411 402,409 403,409 405,407 405,405 406,404 406,399 405,398 405,379 408,376 409,376 410,375 411,375 412,374 413,374 415,372 416,372 417,371 418,371 419,370 420,370 422,368 423,368 424,367 425,367 427,365 428,365 429,364 430,364 431,363 432,363 433,362 432,361 431,361 430,360 429,360 428,359 427,359 425,357 424,357 420,353 420,325 418,327 417,327 416,328 415,328 414,329 413,329 412,330 411,330 409,332 408,332 407,333 406,333 405,334 404,334 402,336 401,336 400,337 399,337 398,338 395,338 394,337 393,337 391,335 390,335 389,334 388,334 387,333 386,333 384,331 383,331 382,330 381,330 380,329 379,329 377,327 376,327 375,326 374,326 372,324 371,324 370,323 369,323 368,322 367,322 365,320 364,320 363,319 362,319 361,318 360,318 358,316 357,316 356,315 355,315 354,314 Z" fill="#00f3ff" />
  </g>
</svg>